<?xml version="1.0" encoding="UTF-8" standalone="no"?>
<svg
   xmlns:dc="http://purl.org/dc/elements/1.1/"
   xmlns:cc="http://creativecommons.org/ns#"
   xmlns:rdf="http://www.w3.org/1999/02/22-rdf-syntax-ns#"
   xmlns:svg="http://www.w3.org/2000/svg"
   xmlns="http://www.w3.org/2000/svg"
   viewBox="0 0 1750 1225"
   height="1225"
   width="1750"
   xml:space="preserve"
   version="1.1"
   id="svg2"><metadata
     id="metadata8"><rdf:RDF><cc:Work
         rdf:about=""><dc:format>image/svg+xml</dc:format><dc:type
           rdf:resource="http://purl.org/dc/dcmitype/StillImage" /></cc:Work></rdf:RDF></metadata><defs
     id="defs6" /><g
     transform="matrix(1.25,0,0,-1.25,0,1225)"
     id="g10"><g
       transform="scale(0.1,0.1)"
       id="g12"><path
         id="path14"
         style="fill:#414042;fill-opacity:1;fill-rule:nonzero;stroke:none"
         d="m 604.402,3719.94 209.309,-106.45 97.344,-123.13 287.685,-1097.79 189.39,-44.11 208.95,44.51 156.18,71.25 97.97,164.76 62.33,253.72 0,231.64 -24.91,317.76 2130.67,2157.02 -216.72,826.94 4529.06,-171.31 1660.19,307.25 634.15,1740.55 332.8,-1269.89 250.3,111.43 440.1,-1690.48 930.4,-118.63 L 13974.7,0 l 25.3,0 0,9800 L 0,9800 0,0 1396.25,0 428.84,3691.47 l 175.562,28.47" /><path
         id="path16"
         style="fill:#373638;fill-opacity:1;fill-rule:nonzero;stroke:none"
         d="m 12579.6,5324.98 -930.4,118.63 -440.1,1690.48 -250.3,-111.43 L 10626,8292.55 9991.85,6552 8331.66,6244.75 3802.6,6416.06 4019.32,5589.12 1888.65,3432.1 l 24.91,-317.76 0,-231.64 -62.33,-253.72 -97.97,-164.76 -156.18,-71.25 -208.95,-44.51 -189.39,44.11 L 911.055,3490.36 813.711,3613.49 604.402,3719.94 428.84,3691.47 1396.25,0 13974.7,0 12579.6,5324.98" /><path
         id="path18"
         style="fill:#e3ff9d;fill-opacity:1;fill-rule:nonzero;stroke:none"
         d="M 6999.99,8756.19 6015.17,6760.67 3812.96,6440.69 5406.48,4887.37 5260.84,4038.28 7984.28,6761.72 6999.99,8756.19" /><path
         id="path20"
         style="fill:#d0eb90;fill-opacity:1;fill-rule:nonzero;stroke:none"
         d="m 10187,6440.69 -2202.2,319.98 -0.52,1.05 L 5260.84,4038.28 5030.27,2694.11 6999.99,3729.65 8969.7,2694.11 8593.52,4887.37 10187,6440.69" /><path
         id="path22"
         style="fill:#231f20;fill-opacity:1;fill-rule:nonzero;stroke:none"
         d="m 10232.3,5152.64 587.7,-540.45 385.2,156.02 -587.8,540.46 -385.1,-156.03" /><path
         id="path24"
         style="fill:#231f20;fill-opacity:1;fill-rule:nonzero;stroke:none"
         d="m 9719.82,4945.03 270.93,-668.8 385.25,156.06 -587.72,540.45 -68.46,-27.71" /><path
         id="path26"
         style="fill:#f6fff5;fill-opacity:1;fill-rule:nonzero;stroke:none"
         d="m 9788.28,4972.74 587.72,-540.45 444,179.9 -587.7,540.45 -444.02,-179.9" /><path
         id="path28"
         style="fill:#f6fff5;fill-opacity:1;fill-rule:nonzero;stroke:none"
         d="m 10617.4,5308.67 587.8,-540.46 444,179.85 -587.7,540.48 -444.1,-179.87" /><path
         id="path30"
         style="fill:#231f20;fill-opacity:1;fill-rule:nonzero;stroke:none"
         d="m 12579.6,5324.98 -271,668.79 -417.9,-169.33 587.7,-540.46 101.2,41" /><path
         id="path32"
         style="fill:#231f20;fill-opacity:1;fill-rule:nonzero;stroke:none"
         d="m 11446.7,5644.59 -385.2,-156.05 587.7,-540.48 385.2,156.05 -587.7,540.48" /><path
         id="path34"
         style="fill:#f6fff5;fill-opacity:1;fill-rule:nonzero;stroke:none"
         d="m 12478.4,5283.98 -587.7,540.46 -444,-179.85 587.7,-540.48 444,179.87" /><path
         id="path36"
         style="fill:#231f20;fill-opacity:1;fill-rule:nonzero;stroke:none"
         d="m 12232.1,4251.94 -341.8,-721.58 -415.6,0 341.8,721.58 415.6,0" /><path
         id="path38"
         style="fill:#231f20;fill-opacity:1;fill-rule:nonzero;stroke:none"
         d="m 12785.1,4251.94 0,-721.58 -415.7,0 341.8,721.58 73.9,0" /><path
         id="path40"
         style="fill:#f6fff5;fill-opacity:1;fill-rule:nonzero;stroke:none"
         d="m 12711.2,4251.94 -341.8,-721.58 -479.1,0 341.8,721.58 479.1,0" /><path
         id="path42"
         style="fill:#f6fff5;fill-opacity:1;fill-rule:nonzero;stroke:none"
         d="m 11816.5,4251.94 -341.8,-721.58 -479,0 341.8,721.58 479,0" /><path
         id="path44"
         style="fill:#231f20;fill-opacity:1;fill-rule:nonzero;stroke:none"
         d="m 9991.85,3530.36 0,721.58 450.95,0 -341.8,-721.58 -109.15,0" /><path
         id="path46"
         style="fill:#231f20;fill-opacity:1;fill-rule:nonzero;stroke:none"
         d="m 10921.9,4251.94 415.6,0 -341.8,-721.58 -415.6,0 341.8,721.58" /><path
         id="path48"
         style="fill:#f6fff5;fill-opacity:1;fill-rule:nonzero;stroke:none"
         d="m 10101,3530.36 341.8,721.58 479.1,0 -341.8,-721.58 -479.1,0" /><path
         id="path50"
         style="fill:#f6fff5;fill-opacity:1;fill-rule:nonzero;stroke:none"
         d="m 10115.5,4575.82 -223.34,0 0,-599.22 223.34,0 c 107.4,0 194.4,87.04 194.4,194.33 l 0,210.58 c 0,107.32 -87,194.31 -194.4,194.31" /><path
         id="path52"
         style="fill:#231f20;fill-opacity:1;fill-rule:nonzero;stroke:none"
         d="m 10233,4276.23 c 0,-72.89 -59.1,-131.99 -132,-131.99 -72.9,0 -131.98,59.1 -131.98,131.99 0,72.9 59.08,131.97 131.98,131.97 72.9,0 132,-59.07 132,-131.97" /><path
         id="path54"
         style="fill:#000000;fill-opacity:1;fill-rule:nonzero;stroke:none"
         d="m 12678.2,3530.36 -2548.8,0 0,-230.72 2548.8,92.6 0,138.12" /><path
         id="path56"
         style="fill:#231f20;fill-opacity:1;fill-rule:nonzero;stroke:none"
         d="m 10129.4,3299.64 0,-1421.61 c 0,-162.44 131.8,-294.21 294.2,-294.21 l 1960.4,0 c 162.5,0 294.2,131.77 294.2,294.21 l 0,1514.21 -2548.8,-92.6" /><path
         id="path58"
         style="fill:#f6fff5;fill-opacity:1;fill-rule:nonzero;stroke:none"
         d="m 10578.6,2229.74 1655,0 0,750.668 -1655,0 0,-750.668 z" /><path
         id="path60"
         style="fill:#231f20;fill-opacity:1;fill-rule:nonzero;stroke:none"
         d="m 11973.5,2722.91 c 0,-31.33 -25.5,-56.72 -56.8,-56.72 l -1021.2,0 c -31.3,0 -56.7,25.39 -56.7,56.72 l 0,0 c 0,31.34 25.4,56.76 56.7,56.76 l 1021.2,0 c 31.3,0 56.8,-25.42 56.8,-56.76 l 0,0" /><path
         id="path62"
         style="fill:#231f20;fill-opacity:1;fill-rule:nonzero;stroke:none"
         d="m 11973.5,2487.26 c 0,-31.36 -25.5,-56.75 -56.8,-56.75 l -1021.2,0 c -31.3,0 -56.7,25.39 -56.7,56.75 l 0,0 c 0,31.3 25.4,56.72 56.7,56.72 l 1021.2,0 c 31.3,0 56.8,-25.42 56.8,-56.72 l 0,0" /><path
         id="path64"
         style="fill:#a77b32;fill-opacity:1;fill-rule:nonzero;stroke:none"
         d="m 10731.5,6093.75 c 86.9,148.33 36.8,341.98 36.8,341.98 94.7,-78.29 247.1,-65.95 247.1,-65.95 l 33,164.84 c 103,111.25 8.3,280.17 8.3,280.17 l 41.2,115.38 c 74.1,309.02 -267.9,407.91 -267.9,407.91 l -307,10.3 -43.2,51.48 -37.1,123.62 c -47.4,28.86 -51.5,103.01 -51.5,103.01 72.1,20.61 80.4,90.64 80.4,90.64 l 0,86.52 c 185.4,354.84 12.7,562.35 -74,637.57 81.3,-9.81 219.2,-48.09 242.9,-194.64 0,0 40.2,-296.66 -30.9,-466.62 0,0 -68,-148.33 -9.3,-247.19 0,0 55.7,-71.1 197.8,-117.46 0,0 352.3,-129.78 411,-281.22 0,0 34,-77.22 21.6,-191.59 l -120.5,-834.34 c 0,0 -58.7,-185.44 -234.8,-207.04 l -46.4,-145.25 c -149.4,210.14 -97.5,337.88 -97.5,337.88" /><path
         id="path66"
         style="fill:#a77b32;fill-opacity:1;fill-rule:nonzero;stroke:none"
         d="m 10523.1,2949.96 c 0,0 223.4,692.21 130.2,1063.04 0,0 -62.2,302.84 135.5,753.98 0,0 86.9,257.97 123,548.13 17.1,-240.95 -0.2,-563.39 -126.3,-923.06 0,0 -33.7,-165.83 -18.3,-363.6 0,0 54.6,-551.08 -126.7,-996.07 0,0 -80.4,-428.52 185.4,-620.13 l 0,-105.07 -83,-44.67 c -85.5,87.32 -257.3,312.8 -219.8,687.45" /><path
         id="path68"
         style="fill:#c7a526;fill-opacity:1;fill-rule:nonzero;stroke:none"
         d="m 10397.6,8441.22 c 86.7,-75.22 259.4,-282.73 74,-637.57 l 0,-86.52 c 0,0 -8.3,-70.03 -80.4,-90.64 0,0 4.1,-74.15 51.5,-103.01 l 37.1,-123.62 43.2,-51.48 307,-10.3 c 0,0 342,-98.89 267.9,-407.91 l -41.2,-115.38 c 0,0 94.7,-168.92 -8.3,-280.17 l -33,-164.84 c 0,0 -152.4,-12.34 -247.1,65.95 0,0 50.1,-193.65 -36.8,-341.98 0,0 -51.9,-127.74 97.5,-337.88 0,0 63.4,-168.26 82.8,-440.76 -36.1,-290.16 -123,-548.13 -123,-548.13 -197.7,-451.14 -135.5,-753.98 -135.5,-753.98 93.2,-370.83 -130.2,-1063.04 -130.2,-1063.04 -37.5,-374.65 134.3,-600.13 219.8,-687.45 l -77.7,-41.83 -327.5,0 0,6223.67 c 0,0 24.6,1.12 59.9,-3.13" /><path
         id="path70"
         style="fill:#d7b12a;fill-opacity:1;fill-rule:nonzero;stroke:none"
         d="m 9466.21,7134.09 c 58.71,151.44 411.02,281.22 411.02,281.22 142.17,46.36 197.77,117.46 197.77,117.46 58.7,98.86 -9.3,247.19 -9.3,247.19 -71.06,169.96 -30.9,466.62 -30.9,466.62 34,210.13 302.9,197.77 302.9,197.77 l 0,-6223.67 -327.6,0 -160.69,86.5 0,105.07 c 265.79,191.61 185.39,620.13 185.39,620.13 -181.26,444.99 -126.67,996.07 -126.67,996.07 15.43,197.77 -18.34,363.6 -18.34,363.6 -268.68,766.36 -43.45,1363.82 -43.45,1363.82 l -46.37,145.25 c -176.14,21.6 -234.84,207.04 -234.84,207.04 l -120.55,834.34 c -12.36,114.37 21.63,191.59 21.63,191.59" /><path
         id="path72"
         style="fill:#face31;fill-opacity:1;fill-rule:nonzero;stroke:none"
         d="m 9943.82,6093.75 c -86.89,148.33 -36.74,341.98 -36.74,341.98 -94.79,-78.29 -247.22,-65.95 -247.22,-65.95 l -32.95,164.84 c -103,111.25 -8.25,280.17 -8.25,280.17 l -41.19,115.38 c -74.15,309.02 267.85,407.91 267.85,407.91 l 306.98,10.3 43.2,51.48 37.1,123.62 c 47.4,28.86 51.5,103.01 51.5,103.01 -72.1,20.61 -80.3,90.64 -80.3,90.64 l 0,86.52 c -185.4,354.84 -12.8,562.35 73.9,637.57 -81.3,-9.81 -219.2,-48.09 -242.9,-194.64 0,0 -40.16,-296.66 30.9,-466.62 0,0 68,-148.33 9.3,-247.19 0,0 -55.6,-71.1 -197.77,-117.46 0,0 -352.31,-129.78 -411.02,-281.22 0,0 -33.99,-77.22 -21.63,-191.59 l 120.55,-834.34 c 0,0 58.7,-185.44 234.84,-207.04 l 46.37,-145.25 c 149.34,210.14 97.48,337.88 97.48,337.88" /><path
         id="path74"
         style="fill:#face31;fill-opacity:1;fill-rule:nonzero;stroke:none"
         d="m 10152.3,2949.96 c 0,0 -223.46,692.21 -130.3,1063.04 0,0 62.3,302.84 -135.51,753.98 0,0 -86.91,257.97 -122.96,548.13 -17.12,-240.95 0.18,-563.39 126.26,-923.06 0,0 33.77,-165.83 18.34,-363.6 0,0 -54.59,-551.08 126.67,-996.07 0,0 80.4,-428.52 -185.39,-620.13 l 0,-105.07 83,-44.67 c 85.49,87.32 257.29,312.8 219.89,687.45" /><path
         id="path76"
         style="fill:#face31;fill-opacity:1;fill-rule:nonzero;stroke:none"
         d="m 9295.23,2148.52 1042.47,0 0,164.871 -1042.47,0 0,-164.871 z" /><path
         id="path78"
         style="fill:#dbb32b;fill-opacity:1;fill-rule:nonzero;stroke:none"
         d="m 10337.7,2148.52 1042.4,0 0,164.871 -1042.4,0 0,-164.871 z" /><path
         id="path80"
         style="fill:#dbb32b;fill-opacity:1;fill-rule:nonzero;stroke:none"
         d="m 10337.7,1176.17 1042.4,0 0,796.117 -1042.4,0 0,-796.117 z" /><path
         id="path82"
         style="fill:#face31;fill-opacity:1;fill-rule:nonzero;stroke:none"
         d="m 9295.23,1176.17 1042.47,0 0,796.117 -1042.47,0 0,-796.117 z" /><path
         id="path84"
         style="fill:#382d0a;fill-opacity:1;fill-rule:nonzero;stroke:none"
         d="m 11380.1,2148.52 -1042.4,0 0,-176.23 1114.5,0 0,176.23 -72.1,0" /><path
         id="path86"
         style="fill:#574710;fill-opacity:1;fill-rule:nonzero;stroke:none"
         d="m 9295.23,2148.52 -72.09,0 0,-176.23 1114.56,0 0,176.23 -1042.47,0" /><path
         id="path88"
         style="fill:#382d0a;fill-opacity:1;fill-rule:nonzero;stroke:none"
         d="m 11380.1,1176.17 -1042.4,0 0,-313.17 1274.2,0 0,313.17 -231.8,0" /><path
         id="path90"
         style="fill:#574710;fill-opacity:1;fill-rule:nonzero;stroke:none"
         d="m 9295.23,1176.17 -231.73,0 0,-313.17 1274.2,0 0,313.17 -1042.47,0" /><path
         id="path92"
         style="fill:#13b5e6;fill-opacity:1;fill-rule:nonzero;stroke:none"
         d="m 8630.77,4030.04 1232.5,0 -337.13,-2862.87 c 0,0 -27.65,-175.018 -221.09,-195.318 l -1348.53,0 c -193.44,20.3 -221.1,195.318 -221.1,195.318 l -337.18,2862.87 1232.53,0" /><path
         id="path94"
         style="fill:#feeea0;fill-opacity:1;fill-rule:nonzero;stroke:none"
         d="m 7845.97,2648.37 c 0,-433.45 351.37,-784.87 784.8,-784.87 433.46,0 784.83,351.42 784.83,784.87 0,433.35 -351.37,784.83 -784.83,784.83 -433.43,0 -784.8,-351.48 -784.8,-784.83" /><path
         id="path96"
         style="fill:#f07800;fill-opacity:1;fill-rule:nonzero;stroke:none"
         d="m 8656.55,4157.21 c -61.03,0 -110.52,49.44 -110.52,110.5 l 0,695.48 c 0,65.52 -23.04,87.67 -30.61,94.93 -33.82,32.53 -90.82,32.48 -93.17,33.15 l -1035.98,-0.02 c -61.04,0 -110.55,49.47 -110.55,110.5 0,61.02 49.51,110.54 110.55,110.54 l 1031.73,0 c 10.98,0.34 149.03,2.95 250.68,-94.92 44.9,-43.15 98.39,-122.31 98.39,-254.18 l 0,-695.48 c 0,-61.06 -49.47,-110.5 -110.52,-110.5" /><path
         id="path98"
         style="fill:#6d4119;fill-opacity:1;fill-rule:nonzero;stroke:none"
         d="m 7315.4,3974.8 c 0,0 0,102.25 0,223.81 0,2.85 0.03,5.67 0.11,8.27 4.15,113.22 91.08,110.6 91.08,110.6 l 176.83,0 c 0,102.21 102.27,110.5 102.27,110.5 l 1890.19,0 c 0,0 102.25,-8.29 102.25,-110.5 l 176.87,0 c 0,0 86.93,2.62 91.01,-110.6 0.12,-2.6 0.18,-5.42 0.18,-8.27 0,-121.56 0,-223.81 0,-223.81 0,0 5.51,-69.09 -124.37,-69.09 l -2382.06,0 c -129.89,0 -124.36,69.09 -124.36,69.09" /><path
         id="path100"
         style="fill:#070102;fill-opacity:1;fill-rule:nonzero;stroke:none"
         d="m 1228.35,2316.81 c 204.51,-56 451.67,-14.8 584.42,167.18 163.72,224.6 144.16,523 125.21,811.63 -20.43,310.56 -39.68,603.96 158.56,792.08 19.39,18.39 20.17,49.03 1.8,68.41 -18.42,19.42 -49.05,20.2 -68.38,1.8 -231.2,-219.37 -209.52,-549.45 -188.54,-868.68 18.65,-283.85 36.24,-551.99 -106.84,-748.22 -127.46,-174.79 -391.27,-186.2 -572.52,-96.15 -232.294,115.25 -230.443,362.12 -228.642,600.85 l 0.234,33.27 c 1.203,178.88 3.418,511.78 -170.531,641.07 -77.625,57.66 -178.57,67.91 -300.156,30.45 -25.52,-7.91 -39.84,-34.94 -31.965,-60.51 7.828,-25.57 34.938,-39.87 60.508,-31.96 91.738,28.31 161.715,23.08 213.898,-15.69 134.578,-100 132.543,-401.01 131.496,-562.73 l -0.23,-33.14 C 834.82,2803.14 832.551,2500.3 1119,2358.18 c 34.29,-17.01 71.08,-30.89 109.35,-41.37" /><path
         id="path102"
         style="fill:#ffffff;fill-opacity:1;fill-rule:nonzero;stroke:none"
         d="m 1897.57,4383.03 c -271.64,-992.2 312.52,-2016.76 1304.72,-2288.42 992.23,-271.66 2016.81,312.52 2288.42,1304.73 271.63,992.19 -312.53,2016.77 -1304.7,2288.41 -992.23,271.61 -2016.78,-312.53 -2288.44,-1304.72" /><path
         id="path104"
         style="fill:#070102;fill-opacity:1;fill-rule:nonzero;stroke:none"
         d="m 4277.07,4732.39 c 63.51,231.95 -73.03,471.44 -305.01,534.95 -52.89,14.45 -106.06,18.06 -157.56,12.99 81.61,29.56 172.75,35.44 262.89,10.78 231.98,-63.51 368.52,-303 305.01,-534.98 -49,-179.04 -203.02,-300.78 -377.39,-318 128.48,46.6 233.24,152.43 272.06,294.26" /><path
         id="path106"
         style="fill:#231f20;fill-opacity:1;fill-rule:nonzero;stroke:none"
         d="m 3542.44,4986.1 c 38.85,141.81 143.59,247.66 272.06,294.23 51.5,5.07 104.67,1.46 157.56,-12.99 231.98,-63.51 368.52,-303 305.01,-534.95 -38.82,-141.83 -143.58,-247.66 -272.06,-294.26 -51.5,-5.06 -104.7,-1.46 -157.56,12.99 -231.95,63.51 -368.51,303.03 -305.01,534.98" /><path
         id="path108"
         style="fill:#070102;fill-opacity:1;fill-rule:nonzero;stroke:none"
         d="m 4711.18,4308.02 c -80.29,21.99 -161.38,19.48 -235.84,-2.12 61.96,39.56 134.58,64.21 213.27,67.89 240.22,11.3 444.1,-174.29 455.37,-414.51 9.68,-205.74 -125.24,-384.38 -315,-438.67 88.45,56.01 157.38,143.5 187.18,252.43 63.5,231.98 -73.03,471.47 -304.98,534.98" /><path
         id="path110"
         style="fill:#070102;fill-opacity:1;fill-rule:nonzero;stroke:none"
         d="m 4077.37,3281.04 c -125.97,34.49 -254,9.59 -355,-57.2 46.05,53.93 105.88,97.35 176.92,124.2 224.94,84.98 476.2,-28.58 561.17,-253.51 73.53,-194.67 -1.74,-408.8 -169.04,-518.02 41.25,47.62 73.18,104.68 90.95,169.57 63.51,231.96 -73.05,471.45 -305,534.96" /><path
         id="path112"
         style="fill:#070102;fill-opacity:1;fill-rule:nonzero;stroke:none"
         d="m 2919.64,3597.99 c -118.61,32.46 -239.02,12.37 -337.04,-45.76 14.29,15.37 29.43,30.16 46.31,43.68 187.7,150.33 461.71,120.04 612.05,-67.69 150.36,-187.67 120.02,-461.71 -67.66,-612.05 -15.7,-12.6 -32.19,-23.43 -49,-33.47 45.98,49.62 81.23,110.54 100.32,180.34 63.51,231.95 -73.02,471.44 -304.98,534.95" /><path
         id="path114"
         style="fill:#070102;fill-opacity:1;fill-rule:nonzero;stroke:none"
         d="m 2875.21,4810.63 c -111.04,30.41 -223.63,14.54 -318,-35.27 143.55,126.81 359.17,147.94 526.94,37.68 200.98,-132.05 256.87,-402.04 124.77,-603.02 -41.96,-63.91 -97.97,-113.01 -161.2,-146.19 61.84,54.31 109.12,126.54 132.47,211.85 63.51,231.96 -73.03,471.48 -304.98,534.95" /><path
         id="path116"
         style="fill:#231f20;fill-opacity:1;fill-rule:nonzero;stroke:none"
         d="m 2605.89,4085.22 c -200.92,132.1 -256.84,402.05 -124.79,603.02 21.84,33.2 47.67,62.05 76.11,87.12 94.37,49.81 206.96,65.68 318,35.27 231.95,-63.47 368.49,-302.99 304.98,-534.95 -23.35,-85.31 -70.63,-157.54 -132.47,-211.85 -135.62,-71.18 -304.71,-68.67 -441.83,21.39" /><path
         id="path118"
         style="fill:#231f20;fill-opacity:1;fill-rule:nonzero;stroke:none"
         d="m 2561.23,2983.83 c -136.83,170.87 -123.6,412.89 21.37,568.4 98.02,58.13 218.43,78.22 337.04,45.76 231.96,-63.51 368.49,-303 304.98,-534.95 -19.09,-69.8 -54.34,-130.72 -100.32,-180.34 -183.89,-110.21 -425.31,-70.84 -563.07,101.13" /><path
         id="path120"
         style="fill:#231f20;fill-opacity:1;fill-rule:nonzero;stroke:none"
         d="m 4206.96,2533.36 c -224.98,-84.98 -476.24,28.44 -561.19,253.48 -58.19,153.96 -23.28,320.16 76.6,437 101,66.79 229.03,91.69 355,57.2 231.95,-63.51 368.51,-303 305,-534.96 -17.77,-64.89 -49.7,-121.95 -90.95,-169.57 -26.04,-17.03 -54.14,-31.72 -84.46,-43.15" /><path
         id="path122"
         style="fill:#231f20;fill-opacity:1;fill-rule:nonzero;stroke:none"
         d="m 4274.07,3918.39 c -7.57,161.56 74.07,306.34 201.27,387.51 74.46,21.6 155.55,24.11 235.84,2.12 231.95,-63.51 368.48,-303 304.98,-534.98 -29.8,-108.93 -98.73,-196.42 -187.18,-252.43 -31.86,-9.09 -65.02,-15.08 -99.51,-16.73 -240.2,-11.3 -444.1,174.29 -455.4,414.51" /><path
         id="path124"
         style="fill:#face31;fill-opacity:1;fill-rule:nonzero;stroke:none"
         d="m 5104.95,4489.17 c 0,8.4 0.65,16.7 1.22,24.91 12.79,168.26 153.03,300.91 324.58,300.91 179.98,0 325.8,-145.85 325.8,-325.82 0,4.06 0.5,8.04 0.65,12.1 6.42,174.3 149.32,313.72 325.15,313.72 177.66,0 321.87,-142.22 325.49,-318.98 0.11,-2.3 0.37,-4.55 0.37,-6.84 0,179.97 145.85,325.82 325.8,325.82 173.87,0 315.49,-136.3 324.89,-307.85 0.34,-5.97 0.91,-11.87 0.91,-17.97 0,179.97 145.9,325.82 325.85,325.82 52.63,0 102.13,-12.72 146.17,-34.9 6.58,14.89 10.65,31.2 10.65,48.57 0,66.77 -54.17,120.89 -120.89,120.89 -16.46,0 -32.17,-3.37 -46.57,-9.32 0.29,3.11 1,6.16 1,9.27 0,66.81 -54.12,120.93 -120.91,120.93 -4.54,0 -8.82,-0.91 -13.16,-1.41 8.15,16.33 13.16,34.44 13.16,53.9 0,66.77 -54.09,120.88 -120.86,120.88 -28.83,0 -54.92,-10.46 -75.67,-27.31 -16.67,22.44 -40.78,38.82 -68.85,45.55 14.69,19.99 23.69,44.46 23.69,71.21 0,66.71 -54.16,120.83 -120.88,120.83 -47.33,0 -87.85,-27.4 -107.68,-66.96 -26.4,-6.52 -49.18,-21.7 -65.54,-42.37 -11.19,12.84 -24.81,23.3 -40.41,30.53 32.51,11.53 55.91,42.32 55.91,78.8 0,46.38 -37.65,84.04 -84.04,84.04 -33.08,0 -61.47,-19.37 -75.17,-47.15 -19.36,13.15 -42.71,20.85 -67.89,20.85 -11.19,0 -21.76,-1.99 -32.04,-4.83 -15.39,18.84 -38.54,31.13 -64.79,31.13 -41.58,0 -75.87,-30.27 -82.6,-69.93 -12.08,4.05 -24.81,6.73 -38.28,6.73 -5.45,0 -10.69,-0.91 -15.94,-1.59 0,0.58 0.16,1.04 0.16,1.59 0,46.42 -37.62,84.04 -84.04,84.04 -21.22,0 -40.41,-8.14 -55.19,-21.13 -0.88,0.08 -1.8,0.29 -2.71,0.29 -32.98,0 -61.31,-19.18 -75.06,-46.94 -19.23,13.04 -42.5,20.64 -67.53,20.64 -3.21,0 -6.18,-0.66 -9.34,-0.92 -18.65,45.82 -63.48,78.22 -116.02,78.22 -62.6,0 -114.02,-46.07 -123.39,-106.08 -22.31,20.48 -51.74,33.26 -84.46,33.26 -22.96,0 -44.17,-6.62 -62.67,-17.37 -18.5,10.75 -39.71,17.37 -62.67,17.37 -69.22,0 -125.34,-56.12 -125.34,-125.31 0,-12.74 2.45,-24.74 5.97,-36.32 -21.5,19.56 -49.78,31.83 -81.12,31.83 -45.53,0 -84.77,-25.57 -105.35,-62.78 -14.51,6.11 -30.37,9.53 -47.13,9.53 -66.71,0 -120.8,-54.09 -120.8,-120.89 0,-18.65 4.54,-36.08 12.08,-51.81 -77.72,-25.44 -133.98,-98.47 -133.98,-184.75 0,-35.41 9.61,-68.54 26.25,-97.2 -9.57,-16.54 -16.8,-34.54 -21.18,-53.69 -9.24,2.24 -18.76,3.75 -28.7,3.75 -24.82,0 -47.86,-7.48 -66.98,-20.29 148.41,-30.37 260.08,-161.74 260.08,-319.2" /><path
         id="path126"
         style="fill:#ebc22e;fill-opacity:1;fill-rule:nonzero;stroke:none"
         d="m 4790.97,4707.84 c 0,-50.49 31.02,-93.62 74.9,-111.7 l 0,-287.73 2555.72,0 0,328.17 c 14.78,20.04 23.69,44.51 23.69,71.26 0,0.8 -0.2,1.53 -0.26,2.35 39.09,7.69 71.05,34.36 86.81,69.9 -44.04,22.18 -93.54,34.9 -146.17,34.9 -179.95,0 -325.85,-145.85 -325.85,-325.82 0,6.1 -0.57,12 -0.91,17.97 -9.4,171.55 -151.02,307.85 -324.89,307.85 -179.95,0 -325.8,-145.85 -325.8,-325.82 0,2.29 -0.26,4.54 -0.37,6.84 -3.62,176.76 -147.83,318.98 -325.49,318.98 -175.83,0 -318.73,-139.42 -325.15,-313.72 -0.15,-4.06 -0.65,-8.04 -0.65,-12.1 0,179.97 -145.82,325.82 -325.8,325.82 -171.55,0 -311.79,-132.65 -324.58,-300.91 -0.57,-8.21 -1.22,-16.51 -1.22,-24.91 0,157.46 -111.67,288.83 -260.08,319.2 -32.46,-21.66 -53.9,-58.6 -53.9,-100.53" /><path
         id="path128"
         style="fill:#ed5d54;fill-opacity:1;fill-rule:nonzero;stroke:none"
         d="m 5780.29,4382.03 c 0,179.96 -145.9,325.81 -325.8,325.81 -171.55,0 -311.84,-132.63 -324.57,-300.94 l 216.79,-3230.6 478.98,0 -44.8,3217.81 c -0.15,-4.04 -0.6,-8.01 -0.6,-12.08" /><path
         id="path130"
         style="fill:#f6fff5;fill-opacity:1;fill-rule:nonzero;stroke:none"
         d="m 5128.64,4382.03 c 0,179.96 -145.85,325.81 -325.8,325.81 -179.95,0 -325.8,-145.85 -325.8,-325.81 l 456.09,-3205.73 413.58,0 -216.79,3230.6 c -0.63,-8.22 -1.28,-16.46 -1.28,-24.87" /><path
         id="path132"
         style="fill:#f6fff5;fill-opacity:1;fill-rule:nonzero;stroke:none"
         d="m 6106.1,4707.84 c -175.89,0 -318.79,-139.43 -325.21,-313.73 l 44.8,-3217.81 561.2,0 44.7,3212.52 c -3.68,176.8 -147.84,319.02 -325.49,319.02" /><path
         id="path134"
         style="fill:#ed5d54;fill-opacity:1;fill-rule:nonzero;stroke:none"
         d="m 6757.7,4707.84 c -179.95,0 -325.8,-145.85 -325.8,-325.81 0,2.31 -0.26,4.49 -0.31,6.79 l -44.7,-3212.52 479.4,0 216.36,3223.69 c -9.4,171.57 -151.02,307.85 -324.95,307.85" /><path
         id="path136"
         style="fill:#f6fff5;fill-opacity:1;fill-rule:nonzero;stroke:none"
         d="m 7735.16,4382.03 c 0,179.96 -145.85,325.81 -325.8,325.81 -179.96,0 -325.81,-145.85 -325.81,-325.81 0,6.06 -0.59,11.98 -0.9,17.96 l -216.36,-3223.69 412.77,0 456.1,3205.73" /><path
         id="path138"
         style="fill:#13b5e6;fill-opacity:1;fill-rule:nonzero;stroke:none"
         d="m 7419.9,1261.41 c 0,-128.31 -104.05,-232.29 -232.37,-232.29 l -2162.92,0 c -128.32,0 -232.37,103.98 -232.37,232.29 l 0,0 c 0,128.32 104.05,232.37 232.37,232.37 l 2162.92,0 c 128.32,0 232.37,-104.05 232.37,-232.37 l 0,0" /><path
         id="path140"
         style="fill:#ffffff;fill-opacity:1;fill-rule:nonzero;stroke:none"
         d="m 5529.01,5421.25 c 0,-28.33 -22.91,-51.24 -51.19,-51.24 -28.28,0 -51.25,22.91 -51.25,51.24 0,28.29 22.97,51.19 51.25,51.19 28.28,0 51.19,-22.9 51.19,-51.19" /><path
         id="path142"
         style="fill:#ffffff;fill-opacity:1;fill-rule:nonzero;stroke:none"
         d="m 5181.13,5125.59 c 0,-28.29 -22.93,-51.2 -51.21,-51.2 -28.28,0 -51.27,22.91 -51.27,51.2 0,28.33 22.99,51.29 51.27,51.29 28.28,0 51.21,-22.96 51.21,-51.29" /><path
         id="path144"
         style="fill:#ffffff;fill-opacity:1;fill-rule:nonzero;stroke:none"
         d="m 6339.95,5370.01 c 0,-28.34 -22.93,-51.25 -51.27,-51.25 -28.28,0 -51.21,22.91 -51.21,51.25 0,28.28 22.93,51.24 51.21,51.24 28.34,0 51.27,-22.96 51.27,-51.24" /><path
         id="path146"
         style="fill:#ffffff;fill-opacity:1;fill-rule:nonzero;stroke:none"
         d="m 6933.32,5234.02 c 0,-28.34 -22.93,-51.22 -51.27,-51.22 -28.28,0 -51.22,22.88 -51.22,51.22 0,28.28 22.94,51.22 51.22,51.22 28.34,0 51.27,-22.94 51.27,-51.22" /><path
         id="path148"
         style="fill:#ffffff;fill-opacity:1;fill-rule:nonzero;stroke:none"
         d="m 7403.2,4861.54 c 0,-28.28 -22.91,-51.22 -51.25,-51.22 -28.28,0 -51.24,22.94 -51.24,51.22 0,28.28 22.96,51.27 51.24,51.27 28.34,0 51.25,-22.99 51.25,-51.27" /><path
         id="path150"
         style="fill:#ffffff;fill-opacity:1;fill-rule:nonzero;stroke:none"
         d="m 5444.39,4946.28 c 10.91,-14.27 17.64,-31.88 17.64,-51.21 0,-46.84 -37.91,-84.75 -84.74,-84.75 l -0.05,0 c 15.47,-20.27 39.63,-33.52 67.05,-33.52 46.83,0 84.72,37.96 84.72,84.74 0,46.79 -37.83,84.7 -84.62,84.74" /><path
         id="path152"
         style="fill:#ffffff;fill-opacity:1;fill-rule:nonzero;stroke:none"
         d="m 5874.98,5552.02 c 9.03,-11.92 14.66,-26.56 14.66,-42.68 0,-38.91 -31.57,-70.45 -70.47,-70.45 l -0.05,0 c 12.86,-16.81 32.93,-27.86 55.75,-27.86 38.93,0 70.51,31.62 70.51,70.52 0,38.8 -31.52,70.37 -70.4,70.47" /><path
         id="path154"
         style="fill:#ffffff;fill-opacity:1;fill-rule:nonzero;stroke:none"
         d="m 6624.84,5011.3 c 10.91,-14.24 17.64,-31.88 17.64,-51.24 0,-46.75 -37.88,-84.72 -84.74,-84.72 l -0.05,0 c 15.47,-20.21 39.63,-33.52 67.1,-33.52 46.78,0 84.69,37.96 84.69,84.79 0,46.71 -37.85,84.69 -84.64,84.69" /><path
         id="path156"
         style="fill:#ffffff;fill-opacity:1;fill-rule:nonzero;stroke:none"
         d="m 5316.29,5159.11 c 10.9,-14.27 17.66,-31.91 17.66,-51.21 0,-46.79 -37.91,-84.75 -84.75,-84.75 l -0.04,0 c 15.44,-20.2 39.6,-33.5 67.02,-33.5 46.84,0 84.75,37.94 84.75,84.74 0,46.76 -37.86,84.67 -84.64,84.72" /><path
         id="path158"
         style="fill:#ffffff;fill-opacity:1;fill-rule:nonzero;stroke:none"
         d="m 5096.52,4895.07 c 10.91,-14.33 17.64,-31.92 17.64,-51.22 0,-46.83 -37.96,-84.8 -84.75,-84.8 -0.05,0 -0.05,0 -0.05,0 15.44,-20.19 39.6,-33.44 67.06,-33.44 46.8,0 84.71,37.88 84.71,84.71 0,46.79 -37.85,84.65 -84.61,84.75" /><path
         id="path160"
         style="fill:#ffffff;fill-opacity:1;fill-rule:nonzero;stroke:none"
         d="m 5596.22,5125.59 c 10.86,-14.2 17.64,-31.86 17.64,-51.2 0,-46.8 -37.94,-84.74 -84.75,-84.74 -0.05,0 -0.1,0 -0.1,0 15.52,-20.22 39.69,-33.53 67.11,-33.53 46.78,0 84.74,37.97 84.74,84.77 0,46.76 -37.86,84.7 -84.64,84.7" /><path
         id="path162"
         style="fill:#ffffff;fill-opacity:1;fill-rule:nonzero;stroke:none"
         d="m 6012.53,5243.86 c 10.91,-14.28 17.64,-31.86 17.64,-51.22 0,-46.83 -37.93,-84.74 -84.72,-84.74 -0.07,0 -0.07,0 -0.07,0 15.46,-20.25 39.63,-33.51 67.05,-33.51 46.78,0 84.74,37.94 84.74,84.72 0,46.78 -37.91,84.69 -84.64,84.75" /><path
         id="path164"
         style="fill:#ffffff;fill-opacity:1;fill-rule:nonzero;stroke:none"
         d="m 6422.82,5267.47 c 10.91,-14.19 17.64,-31.83 17.64,-51.19 0,-46.81 -37.91,-84.75 -84.75,-84.75 l -0.05,0 c 15.45,-20.19 39.63,-33.52 67.11,-33.52 46.78,0 84.72,37.96 84.72,84.79 0,46.73 -37.89,84.67 -84.67,84.67" /><path
         id="path166"
         style="fill:#ffffff;fill-opacity:1;fill-rule:nonzero;stroke:none"
         d="m 5873.47,4895.07 c 10.91,-14.33 17.66,-31.92 17.66,-51.22 0,-46.83 -37.91,-84.8 -84.74,-84.8 l -0.06,0 c 15.45,-20.19 39.61,-33.44 67.03,-33.44 46.86,0 84.75,37.88 84.75,84.71 0,46.79 -37.84,84.65 -84.64,84.75" /><path
         id="path168"
         style="fill:#ffffff;fill-opacity:1;fill-rule:nonzero;stroke:none"
         d="m 7024.9,4926.61 c 10.85,-14.35 17.67,-31.93 17.67,-51.27 0,-46.78 -37.97,-84.74 -84.8,-84.74 l -0.06,0 c 15.45,-20.22 39.67,-33.47 67.08,-33.47 46.79,0 84.75,37.91 84.75,84.69 0,46.83 -37.91,84.69 -84.64,84.79" /><path
         id="path170"
         style="fill:#ffffff;fill-opacity:1;fill-rule:nonzero;stroke:none"
         d="m 6726,5318.76 c 10.9,-14.29 17.64,-31.93 17.64,-51.29 0,-46.76 -37.91,-84.67 -84.72,-84.67 l -0.08,0 c 15.47,-20.27 39.64,-33.52 67.11,-33.52 46.78,0 84.69,37.91 84.69,84.74 0,46.78 -37.86,84.69 -84.64,84.74" /><path
         id="path172"
         style="fill:#ffffff;fill-opacity:1;fill-rule:nonzero;stroke:none"
         d="m 6322.19,4895.07 c 0,9.63 -3.37,18.5 -8.83,25.59 -7.74,10.13 -19.82,16.76 -33.5,16.76 -23.42,0 -42.39,-18.95 -42.39,-42.35 0,-23.41 18.97,-42.35 42.34,-42.4 l 0.05,0 c 23.36,0 42.33,18.99 42.33,42.4" /><path
         id="path174"
         style="fill:#ffffff;fill-opacity:1;fill-rule:nonzero;stroke:none"
         d="m 7100.62,5125.59 c 0,-37 -30,-66.98 -67.01,-66.98 -36.99,0 -66.97,29.98 -66.97,66.98 0,37.05 29.98,67.05 66.97,67.05 37.01,0 67.01,-30 67.01,-67.05" /><path
         id="path176"
         style="fill:#ffffff;fill-opacity:1;fill-rule:nonzero;stroke:none"
         d="m 8068.37,889.25 -777.55,0 c -26.47,2.582 -360.24,45.711 -496.72,540.92 -0.13,0.99 -51.03,223.02 -72.98,433.01 35.82,12.65 64.03,42.01 74.33,80.13 32.3,119.26 169.13,168.78 194.18,176.85 211.91,30.6 427.29,46.07 640.33,46.07 364.68,0 596.06,-45.68 598.35,-46.18 256.63,-62.75 239.21,-481.47 238.98,-485.69 -1.02,-19.52 2.81,-38.77 11.19,-56.54 -1.67,-125.42 -31.34,-645.629 -410.11,-688.57 z M 5979.63,1430.17 C 5843.17,934.961 5509.39,891.832 5482.91,889.25 l -777.63,0 c -378.69,42.941 -408.38,563.15 -409.97,688.57 8.32,17.77 12.21,37.02 11.16,56.54 -0.23,4.22 -17.69,422.94 239,485.69 2.35,0.5 233.68,46.18 598.33,46.18 212.98,0 428.44,-15.47 640.36,-46.07 24.99,-8.07 161.87,-57.59 194.12,-176.85 10.3,-38.12 38.4,-67.48 74.33,-80.13 -21.94,-209.99 -72.77,-432.02 -72.98,-433.01 z m 2292.15,887.78 c -25.54,5.35 -562.4,112.14 -1319.75,1.51 l -9.06,-1.82 c -10.51,-2.72 -245.44,-66.15 -329.06,-279.28 l -454.09,0 c -83.6,213.13 -318.55,276.56 -329.06,279.28 l -9.01,1.82 c -757.4,110.63 -1294.28,3.84 -1319.8,-1.51 -426.49,-104.13 -399.17,-670.65 -397.81,-694.71 2.53,-44.92 39.79,-79.63 84.17,-79.63 1.59,0 3.18,0.08 4.75,0.16 12.86,0.68 24.65,4.77 35.22,10.55 5.4,-167.93 56.02,-687.039 471.52,-732.449 l 785.98,-0.152 1.3,0.051 c 16.46,1.23 405.28,37.781 558.02,591.8 0.49,2.51 57.42,250.72 77.77,473.62 l 0.81,9.07 c 16.28,6.52 29.54,17.59 38.78,31.47 l 448.82,0 c 9.21,-13.88 22.46,-24.95 38.74,-31.47 l 0.86,-9.07 c 20.36,-222.9 77.24,-471.11 77.81,-473.62 152.66,-554.019 541.47,-590.57 557.96,-591.8 l 1.36,-0.051 785.95,0.152 c 415.52,45.41 466.04,564.519 471.49,732.449 10.57,-5.78 22.39,-9.87 35.19,-10.55 1.67,-0.08 3.17,-0.16 4.78,-0.16 44.43,0 81.64,34.71 84.25,79.63 1.28,24.06 28.52,590.58 -397.89,694.71" /><path
         id="path178"
         style="fill:#12a1cc;fill-opacity:1;fill-rule:nonzero;stroke:none"
         d="M 5217.14,2165.58 4380.31,1149.89 c 33.03,-73 78.88,-140.29 142.33,-188.581 l 980.64,1190.171 c -95.34,7.71 -190.88,12.48 -286.14,14.1" /><path
         id="path180"
         style="fill:#13b5e6;fill-opacity:1;fill-rule:nonzero;stroke:none"
         d="M 5503.28,2151.48 4522.64,961.309 c 46.18,-35.2 101.81,-60.27 168.63,-70.188 L 5711.93,2129.94 c -69.32,8.82 -138.93,15.97 -208.65,21.54" /><path
         id="path182"
         style="fill:#12a1cc;fill-opacity:1;fill-rule:nonzero;stroke:none"
         d="m 5784.16,2120.16 c -24.03,3.46 -48.12,6.7 -72.23,9.78 L 4691.27,891.121 c 4.64,-0.672 9.29,-1.351 14.01,-1.871 l 135.8,0 995.91,1208.67 c -24.52,12.5 -44.7,19.6 -52.83,22.24" /><path
         id="path184"
         style="fill:#13b5e6;fill-opacity:1;fill-rule:nonzero;stroke:none"
         d="m 5143.8,2166.23 c -364.65,0 -595.98,-45.68 -598.33,-46.18 -256.69,-62.75 -239.23,-481.47 -239,-485.69 1.05,-19.52 -2.84,-38.77 -11.16,-56.54 0.86,-70.11 10.54,-263.45 85,-427.93 l 836.83,1015.69 c -24.47,0.39 -48.92,0.65 -73.34,0.65" /><path
         id="path186"
         style="fill:#13b5e6;fill-opacity:1;fill-rule:nonzero;stroke:none"
         d="m 5978.28,1943.31 c -21.71,80.23 -90.8,128.92 -141.29,154.61 l -995.91,-1208.67 641.83,0 c 26.48,2.582 360.26,45.711 496.72,540.92 0.21,0.99 51.04,223.02 72.98,433.01 -35.93,12.65 -64.03,42.01 -74.33,80.13" /><path
         id="path188"
         style="fill:#ed5d54;fill-opacity:1;fill-rule:nonzero;stroke:none"
         d="m 8331.66,2065.6 -969.24,-1176.35 705.95,0 c 378.77,42.941 408.44,563.15 410.11,688.57 -8.38,17.77 -12.21,37.02 -11.19,56.54 0.17,3.55 12.47,299.37 -135.63,431.24" /><path
         id="path190"
         style="fill:#d4534a;fill-opacity:1;fill-rule:nonzero;stroke:none"
         d="m 8228.31,2120.05 c -0.16,0.03 -1.12,0.23 -2.76,0.52 L 7223.58,904.48 c 35.88,-11.531 60.78,-14.609 67.24,-15.23 l 71.6,0 969.24,1176.35 c -28.23,25.17 -62.26,44.38 -103.35,54.45" /><path
         id="path192"
         style="fill:#ed5d54;fill-opacity:1;fill-rule:nonzero;stroke:none"
         d="M 8021.62,2147.83 7065.95,988.031 C 7125.64,942.52 7182,917.84 7223.58,904.48 l 1001.97,1216.09 c -14.3,2.74 -86.5,15.84 -203.93,27.26" /><path
         id="path194"
         style="fill:#ed5d54;fill-opacity:1;fill-rule:nonzero;stroke:none"
         d="m 7629.96,2166.23 c -213.04,0 -428.42,-15.47 -640.33,-46.07 -25.05,-8.07 -161.88,-57.59 -194.18,-176.85 -10.3,-38.12 -38.51,-67.48 -74.33,-80.13 21.95,-209.99 72.85,-432.02 72.98,-433.01 30.66,-111.21 71.28,-199.6 116.11,-269.87 l 827.72,1004.57 c -34.55,0.86 -70.53,1.36 -107.97,1.36" /><path
         id="path196"
         style="fill:#d4534a;fill-opacity:1;fill-rule:nonzero;stroke:none"
         d="M 7737.93,2164.87 6910.21,1160.3 c 49.33,-77.3 103.78,-132.69 155.74,-172.269 l 955.67,1159.799 c -76.5,7.47 -172.28,14.25 -283.69,17.04" /></g></g></svg>