<?xml version="1.0" encoding="UTF-8" standalone="no"?>
<svg
   xmlns:dc="http://purl.org/dc/elements/1.1/"
   xmlns:cc="http://creativecommons.org/ns#"
   xmlns:rdf="http://www.w3.org/1999/02/22-rdf-syntax-ns#"
   xmlns:svg="http://www.w3.org/2000/svg"
   xmlns="http://www.w3.org/2000/svg"
   viewBox="0 0 419.98749 293.98749"
   height="293.98749"
   width="419.98749"
   xml:space="preserve"
   version="1.1"
   id="svg2"><metadata
     id="metadata8"><rdf:RDF><cc:Work
         rdf:about=""><dc:format>image/svg+xml</dc:format><dc:type
           rdf:resource="http://purl.org/dc/dcmitype/StillImage" /></cc:Work></rdf:RDF></metadata><defs
     id="defs6" /><g
     transform="matrix(1.25,0,0,-1.25,0,293.9875)"
     id="g10"><g
       transform="scale(0.1,0.1)"
       id="g12"><path
         id="path14"
         style="fill:#ccddf3;fill-opacity:1;fill-rule:nonzero;stroke:none"
         d="m 0,0.0117188 3359.85,0 0,2351.8999812 -3359.85,0 L 0,0.0117188 Z" /><path
         id="path16"
         style="fill:#ffffff;fill-opacity:1;fill-rule:nonzero;stroke:none"
         d="m 1150.22,1348.08 c 0,-15.36 -12.45,-27.81 -27.81,-27.81 l -960.461,0 c -15.363,0 -27.812,12.45 -27.812,27.81 l 0,856.31 c 0,15.36 12.449,27.81 27.812,27.81 l 960.461,0 c 15.36,0 27.81,-12.45 27.81,-27.81 l 0,-856.31" /><path
         id="path18"
         style="fill:#ffe791;fill-opacity:1;fill-rule:nonzero;stroke:none"
         d="m 1150.22,2145.88 0,58.51 c 0,15.36 -12.45,27.81 -27.81,27.81 l -960.461,0 c -15.363,0 -27.812,-12.45 -27.812,-27.81 l 0,-58.51 1016.083,0" /><path
         id="path20"
         style="fill:#ffffff;fill-opacity:1;fill-rule:nonzero;stroke:none"
         d="m 228.645,2185.1 c 0,-7.14 -5.79,-12.92 -12.918,-12.92 -7.129,0 -12.911,5.78 -12.911,12.92 0,7.13 5.782,12.92 12.911,12.92 7.128,0 12.918,-5.79 12.918,-12.92" /><path
         id="path22"
         style="fill:#ffffff;fill-opacity:1;fill-rule:nonzero;stroke:none"
         d="m 284.844,2185.1 c 0,-7.14 -5.785,-12.92 -12.914,-12.92 -7.129,0 -12.914,5.78 -12.914,12.92 0,7.13 5.785,12.92 12.914,12.92 7.129,0 12.914,-5.79 12.914,-12.92" /><path
         id="path24"
         style="fill:#ffffff;fill-opacity:1;fill-rule:nonzero;stroke:none"
         d="m 341.039,2185.1 c 0,-7.14 -5.781,-12.92 -12.91,-12.92 -7.129,0 -12.914,5.78 -12.914,12.92 0,7.13 5.785,12.92 12.914,12.92 7.129,0 12.91,-5.79 12.91,-12.92" /><path
         id="path26"
         style="fill:#ffffff;fill-opacity:1;fill-rule:nonzero;stroke:none"
         d="m 1150.22,172.238 c 0,-15.347 -12.45,-27.816 -27.81,-27.816 l -960.461,0 c -15.363,0 -27.812,12.469 -27.812,27.816 l 0,1025.922 c 0,15.36 12.449,27.81 27.812,27.81 l 960.461,0 c 15.36,0 27.81,-12.45 27.81,-27.81 l 0,-1025.922" /><path
         id="path28"
         style="fill:#ffa186;fill-opacity:1;fill-rule:nonzero;stroke:none"
         d="m 1150.22,1139.64 0,58.52 c 0,15.36 -12.45,27.81 -27.81,27.81 l -960.461,0 c -15.363,0 -27.812,-12.45 -27.812,-27.81 l 0,-58.52 1016.083,0" /><path
         id="path30"
         style="fill:#ffffff;fill-opacity:1;fill-rule:nonzero;stroke:none"
         d="m 228.645,1178.87 c 0,-7.14 -5.79,-12.92 -12.918,-12.92 -7.129,0 -12.911,5.78 -12.911,12.92 0,7.13 5.782,12.92 12.911,12.92 7.128,0 12.918,-5.79 12.918,-12.92" /><path
         id="path32"
         style="fill:#ffffff;fill-opacity:1;fill-rule:nonzero;stroke:none"
         d="m 284.844,1178.87 c 0,-7.14 -5.785,-12.92 -12.914,-12.92 -7.129,0 -12.914,5.78 -12.914,12.92 0,7.13 5.785,12.92 12.914,12.92 7.129,0 12.914,-5.79 12.914,-12.92" /><path
         id="path34"
         style="fill:#ffffff;fill-opacity:1;fill-rule:nonzero;stroke:none"
         d="m 341.039,1178.87 c 0,-7.14 -5.781,-12.92 -12.91,-12.92 -7.129,0 -12.914,5.78 -12.914,12.92 0,7.13 5.785,12.92 12.914,12.92 7.129,0 12.91,-5.79 12.91,-12.92" /><path
         id="path36"
         style="fill:#ffffff;fill-opacity:1;fill-rule:nonzero;stroke:none"
         d="m 2119.97,1501.17 c 0,-15.37 -12.44,-27.81 -27.81,-27.81 l -840.45,0 c -15.36,0 -27.81,12.44 -27.81,27.81 l 0,703.22 c 0,15.36 12.45,27.81 27.81,27.81 l 840.45,0 c 15.37,0 27.81,-12.45 27.81,-27.81 l 0,-703.22" /><path
         id="path38"
         style="fill:#ffa186;fill-opacity:1;fill-rule:nonzero;stroke:none"
         d="m 2119.97,2145.88 0,58.51 c 0,15.36 -12.44,27.81 -27.81,27.81 l -840.45,0 c -15.36,0 -27.81,-12.45 -27.81,-27.81 l 0,-58.51 896.07,0" /><path
         id="path40"
         style="fill:#ffffff;fill-opacity:1;fill-rule:nonzero;stroke:none"
         d="m 1318.4,2185.1 c 0,-7.14 -5.78,-12.92 -12.91,-12.92 -7.13,0 -12.91,5.78 -12.91,12.92 0,7.13 5.78,12.92 12.91,12.92 7.13,0 12.91,-5.79 12.91,-12.92" /><path
         id="path42"
         style="fill:#ffffff;fill-opacity:1;fill-rule:nonzero;stroke:none"
         d="m 1374.6,2185.1 c 0,-7.14 -5.78,-12.92 -12.91,-12.92 -7.12,0 -12.91,5.78 -12.91,12.92 0,7.13 5.79,12.92 12.91,12.92 7.13,0 12.91,-5.79 12.91,-12.92" /><path
         id="path44"
         style="fill:#ffffff;fill-opacity:1;fill-rule:nonzero;stroke:none"
         d="m 1430.81,2185.1 c 0,-7.14 -5.8,-12.92 -12.92,-12.92 -7.13,0 -12.91,5.78 -12.91,12.92 0,7.13 5.78,12.92 12.91,12.92 7.12,0 12.92,-5.79 12.92,-12.92" /><path
         id="path46"
         style="fill:#ffffff;fill-opacity:1;fill-rule:nonzero;stroke:none"
         d="m 2119.97,172.238 c 0,-15.347 -12.44,-27.816 -27.81,-27.816 l -840.45,0 c -15.36,0 -27.81,12.469 -27.81,27.816 l 0,703.223 c 0,15.367 12.45,27.809 27.81,27.809 l 840.45,0 c 15.37,0 27.81,-12.442 27.81,-27.809 l 0,-703.223" /><path
         id="path48"
         style="fill:#ffe791;fill-opacity:1;fill-rule:nonzero;stroke:none"
         d="m 2119.97,816.941 0,58.52 c 0,15.367 -12.44,27.809 -27.81,27.809 l -840.45,0 c -15.36,0 -27.81,-12.442 -27.81,-27.809 l 0,-58.52 896.07,0" /><path
         id="path50"
         style="fill:#ffffff;fill-opacity:1;fill-rule:nonzero;stroke:none"
         d="m 1318.4,856.18 c 0,-7.149 -5.78,-12.93 -12.91,-12.93 -7.13,0 -12.91,5.781 -12.91,12.93 0,7.129 5.78,12.91 12.91,12.91 7.13,0 12.91,-5.781 12.91,-12.91" /><path
         id="path52"
         style="fill:#ffffff;fill-opacity:1;fill-rule:nonzero;stroke:none"
         d="m 1374.6,856.18 c 0,-7.149 -5.78,-12.93 -12.91,-12.93 -7.12,0 -12.91,5.781 -12.91,12.93 0,7.129 5.79,12.91 12.91,12.91 7.13,0 12.91,-5.781 12.91,-12.91" /><path
         id="path54"
         style="fill:#ffffff;fill-opacity:1;fill-rule:nonzero;stroke:none"
         d="m 1430.81,856.18 c 0,-7.149 -5.8,-12.93 -12.92,-12.93 -7.13,0 -12.91,5.781 -12.91,12.93 0,7.129 5.78,12.91 12.91,12.91 7.12,0 12.92,-5.781 12.92,-12.91" /><path
         id="path56"
         style="fill:#ffffff;fill-opacity:1;fill-rule:nonzero;stroke:none"
         d="m 2119.97,1010.09 c 0,-15.371 -12.44,-27.809 -27.81,-27.809 l -840.45,0 c -15.36,0 -27.81,12.438 -27.81,27.809 l 0,356.46 c 0,15.36 12.45,27.81 27.81,27.81 l 840.45,0 c 15.37,0 27.81,-12.45 27.81,-27.81 l 0,-356.46" /><path
         id="path58"
         style="fill:#6e798f;fill-opacity:1;fill-rule:nonzero;stroke:none"
         d="m 2119.97,1308.03 0,58.52 c 0,15.36 -12.44,27.81 -27.81,27.81 l -840.45,0 c -15.36,0 -27.81,-12.45 -27.81,-27.81 l 0,-58.52 896.07,0" /><path
         id="path60"
         style="fill:#ffffff;fill-opacity:1;fill-rule:nonzero;stroke:none"
         d="m 1318.4,1347.26 c 0,-7.14 -5.78,-12.92 -12.91,-12.92 -7.13,0 -12.91,5.78 -12.91,12.92 0,7.13 5.78,12.92 12.91,12.92 7.13,0 12.91,-5.79 12.91,-12.92" /><path
         id="path62"
         style="fill:#ffffff;fill-opacity:1;fill-rule:nonzero;stroke:none"
         d="m 1374.6,1347.26 c 0,-7.14 -5.78,-12.92 -12.91,-12.92 -7.12,0 -12.91,5.78 -12.91,12.92 0,7.13 5.79,12.92 12.91,12.92 7.13,0 12.91,-5.79 12.91,-12.92" /><path
         id="path64"
         style="fill:#ffffff;fill-opacity:1;fill-rule:nonzero;stroke:none"
         d="m 1430.81,1347.26 c 0,-7.14 -5.8,-12.92 -12.92,-12.92 -7.13,0 -12.91,5.78 -12.91,12.92 0,7.13 5.78,12.92 12.91,12.92 7.12,0 12.92,-5.79 12.92,-12.92" /><path
         id="path66"
         style="fill:#b0b0b0;fill-opacity:1;fill-rule:nonzero;stroke:none"
         d="m 620.25,1594.36 407.922,0 0,31.9063 -407.922,0 0,-31.9063 z" /><path
         id="path68"
         style="fill:#b0b0b0;fill-opacity:1;fill-rule:nonzero;stroke:none"
         d="m 239.43,1536.99 788.039,0 0,31.9141 -788.039,0 0,-31.9141 z" /><path
         id="path70"
         style="fill:#b0b0b0;fill-opacity:1;fill-rule:nonzero;stroke:none"
         d="m 472.074,1479.64 338.457,0 0,31.8828 -338.457,0 0,-31.8828 z" /><path
         id="path72"
         style="fill:#ffa186;fill-opacity:1;fill-rule:nonzero;stroke:none"
         d="m 867.836,1479.64 159.633,0 0,31.8828 -159.633,0 0,-31.8828 z" /><path
         id="path74"
         style="fill:#b0b0b0;fill-opacity:1;fill-rule:nonzero;stroke:none"
         d="m 239.418,1479.64 193.262,0 0,31.8828 -193.262,0 0,-31.8828 z" /><path
         id="path76"
         style="fill:#ccddf3;fill-opacity:1;fill-rule:nonzero;stroke:none"
         d="m 239.418,1594.36 330.383,0 0,31.8984 -330.383,0 0,-31.8984 z" /><path
         id="path78"
         style="fill:#b0b0b0;fill-opacity:1;fill-rule:nonzero;stroke:none"
         d="m 239.43,1422.27 788.039,0 0,31.8945 -788.039,0 0,-31.8945 z" /><path
         id="path80"
         style="fill:#b0b0b0;fill-opacity:1;fill-rule:nonzero;stroke:none"
         d="m 247.105,1033.6 780.363,0 0,31.8984 -780.363,0 0,-31.8984 z" /><path
         id="path82"
         style="fill:#ccddf3;fill-opacity:1;fill-rule:nonzero;stroke:none"
         d="m 247.094,973.02 218.59,0 0,31.8906 -218.59,0 0,-31.8906 z" /><path
         id="path84"
         style="fill:#b0b0b0;fill-opacity:1;fill-rule:nonzero;stroke:none"
         d="m 511.605,973.039 513.676,0 0,31.8906 -513.676,0 0,-31.8906 z" /><path
         id="path86"
         style="fill:#b0b0b0;fill-opacity:1;fill-rule:nonzero;stroke:none"
         d="m 1305.51,655.809 721.77,0 0,31.9023 -721.77,0 0,-31.9023 z" /><path
         id="path88"
         style="fill:#ccddf3;fill-opacity:1;fill-rule:nonzero;stroke:none"
         d="m 1825.11,716.398 202.18,0 0,31.8906 -202.18,0 0,-31.8906 z" /><path
         id="path90"
         style="fill:#b0b0b0;fill-opacity:1;fill-rule:nonzero;stroke:none"
         d="m 1307.53,716.379 475.117,0 0,31.8906 -475.117,0 0,-31.8906 z" /><path
         id="path92"
         style="fill:#b0b0b0;fill-opacity:1;fill-rule:nonzero;stroke:none"
         d="m 1735.95,2035.69 293.711,0 0,31.8984 -293.711,0 0,-31.8984 z" /><path
         id="path94"
         style="fill:#b0b0b0;fill-opacity:1;fill-rule:nonzero;stroke:none"
         d="m 1735.95,1975.11 82.2617,0 0,31.8945 -82.2617,0 0,-31.8945 z" /><path
         id="path96"
         style="fill:#ccddf3;fill-opacity:1;fill-rule:nonzero;stroke:none"
         d="m 1835.5,1975.13 193.34,0 0,31.8945 -193.34,0 0,-31.8945 z" /><path
         id="path98"
         style="fill:#b0b0b0;fill-opacity:1;fill-rule:nonzero;stroke:none"
         d="m 1735.95,1908.62 293.711,0 0,31.8984 -293.711,0 0,-31.8984 z" /><path
         id="path100"
         style="fill:#b0b0b0;fill-opacity:1;fill-rule:nonzero;stroke:none"
         d="m 1735.95,1848.04 82.2617,0 0,31.8945 -82.2617,0 0,-31.8945 z" /><path
         id="path102"
         style="fill:#b0b0b0;fill-opacity:1;fill-rule:nonzero;stroke:none"
         d="m 1835.5,1848.06 193.34,0 0,31.8945 -193.34,0 0,-31.8945 z" /><path
         id="path104"
         style="fill:#ffa186;fill-opacity:1;fill-rule:nonzero;stroke:none"
         d="m 1735.95,1750.79 293.711,0 0,31.8945 -293.711,0 0,-31.8945 z" /><path
         id="path106"
         style="fill:#ccddf3;fill-opacity:1;fill-rule:nonzero;stroke:none"
         d="m 1305.51,1680.1 203.41,0 0,31.8945 -203.41,0 0,-31.8945 z" /><path
         id="path108"
         style="fill:#b0b0b0;fill-opacity:1;fill-rule:nonzero;stroke:none"
         d="m 1551.66,1680.12 478.02,0 0,31.8945 -478.02,0 0,-31.8945 z" /><path
         id="path110"
         style="fill:#b0b0b0;fill-opacity:1;fill-rule:nonzero;stroke:none"
         d="m 1305.24,1552.93 724.422,0 0,89.2578 -724.422,0 0,-89.2578 z" /><path
         id="path112"
         style="fill:#ffa186;fill-opacity:1;fill-rule:nonzero;stroke:none"
         d="m 324.949,1696.05 0,355.31 -84.914,0 0,-350.56 c -0.019,-1.64 -0.25,-3.23 -0.601,-4.75 l 85.515,0" /><path
         id="path114"
         style="fill:#f2f2f2;fill-opacity:1;fill-rule:nonzero;stroke:none"
         d="m 465.684,1696.05 -85.516,0 c 0.348,1.52 0.578,3.11 0.598,4.75 l 0,350.56 84.918,0 0,-355.31" /><path
         id="path116"
         style="fill:#f2f2f2;fill-opacity:1;fill-rule:nonzero;stroke:none"
         d="m 606.418,1696.05 -85.52,0 c 0.352,1.52 0.582,3.11 0.602,4.75 l 0,350.56 84.918,0 0,-355.31" /><path
         id="path118"
         style="fill:#f2f2f2;fill-opacity:1;fill-rule:nonzero;stroke:none"
         d="m 747.148,1696.05 -85.515,0 c 0.351,1.52 0.578,3.11 0.597,4.75 l 0,350.56 84.918,0 0,-355.31" /><path
         id="path120"
         style="fill:#f2f2f2;fill-opacity:1;fill-rule:nonzero;stroke:none"
         d="m 887.883,1696.05 -85.52,0 c 0.352,1.52 0.582,3.11 0.602,4.75 l 0,350.56 84.918,0 0,-355.31" /><path
         id="path122"
         style="fill:#f2f2f2;fill-opacity:1;fill-rule:nonzero;stroke:none"
         d="m 1028.61,1696.05 -85.512,0 c 0.347,1.52 0.578,3.11 0.597,4.75 l 0,350.56 84.915,0 0,-355.31" /><path
         id="path124"
         style="fill:#ffa186;fill-opacity:1;fill-rule:nonzero;stroke:none"
         d="m 465.684,1696.05 0,198.23 -84.918,0 0,-195.58 c -0.02,-0.92 -0.246,-1.8 -0.598,-2.65 l 85.516,0" /><path
         id="path126"
         style="fill:#ffa186;fill-opacity:1;fill-rule:nonzero;stroke:none"
         d="m 606.418,1696.05 0,290.3 -84.918,0 0,-286.42 c -0.02,-1.34 -0.25,-2.64 -0.602,-3.88 l 85.52,0" /><path
         id="path128"
         style="fill:#ffa186;fill-opacity:1;fill-rule:nonzero;stroke:none"
         d="m 747.148,1696.05 0,141.37 -84.918,0 0,-139.49 -0.597,-1.88 85.515,0" /><path
         id="path130"
         style="fill:#ffa186;fill-opacity:1;fill-rule:nonzero;stroke:none"
         d="m 887.883,1696.05 0,208.72 -84.918,0 0,-205.94 c -0.02,-0.95 -0.25,-1.89 -0.602,-2.78 l 85.52,0" /><path
         id="path132"
         style="fill:#ffa186;fill-opacity:1;fill-rule:nonzero;stroke:none"
         d="m 1028.61,1696.05 0,331.45 -84.915,0 0,-327.03 c -0.019,-1.52 -0.25,-3 -0.597,-4.42 l 85.512,0" /><path
         id="path134"
         style="fill:#ffffff;fill-opacity:1;fill-rule:nonzero;stroke:none"
         d="m 3211.3,172.238 c 0,-15.347 -12.44,-27.816 -27.81,-27.816 l -960.45,0 c -15.37,0 -27.82,12.469 -27.82,27.816 l 0,856.312 c 0,15.37 12.45,27.81 27.82,27.81 l 960.45,0 c 15.37,0 27.81,-12.44 27.81,-27.81 l 0,-856.312" /><path
         id="path136"
         style="fill:#6e798f;fill-opacity:1;fill-rule:nonzero;stroke:none"
         d="m 3211.3,970.031 0,58.519 c 0,15.37 -12.44,27.81 -27.81,27.81 l -960.45,0 c -15.37,0 -27.82,-12.44 -27.82,-27.81 l 0,-58.519 1016.08,0" /><path
         id="path138"
         style="fill:#ffffff;fill-opacity:1;fill-rule:nonzero;stroke:none"
         d="m 2289.72,1009.27 c 0,-7.15 -5.78,-12.93 -12.91,-12.93 -7.13,0 -12.91,5.78 -12.91,12.93 0,7.13 5.78,12.91 12.91,12.91 7.13,0 12.91,-5.78 12.91,-12.91" /><path
         id="path140"
         style="fill:#ffffff;fill-opacity:1;fill-rule:nonzero;stroke:none"
         d="m 2345.93,1009.27 c 0,-7.15 -5.78,-12.93 -12.91,-12.93 -7.13,0 -12.93,5.78 -12.93,12.93 0,7.13 5.8,12.91 12.93,12.91 7.13,0 12.91,-5.78 12.91,-12.91" /><path
         id="path142"
         style="fill:#ffffff;fill-opacity:1;fill-rule:nonzero;stroke:none"
         d="m 2402.12,1009.27 c 0,-7.15 -5.78,-12.93 -12.91,-12.93 -7.13,0 -12.91,5.78 -12.91,12.93 0,7.13 5.78,12.91 12.91,12.91 7.13,0 12.91,-5.78 12.91,-12.91" /><path
         id="path144"
         style="fill:#b0b0b0;fill-opacity:1;fill-rule:nonzero;stroke:none"
         d="m 2533.15,303.801 338.461,0 0,31.8906 -338.461,0 0,-31.8906 z" /><path
         id="path146"
         style="fill:#ffa186;fill-opacity:1;fill-rule:nonzero;stroke:none"
         d="m 2928.92,303.801 159.617,0 0,31.8906 -159.617,0 0,-31.8906 z" /><path
         id="path148"
         style="fill:#b0b0b0;fill-opacity:1;fill-rule:nonzero;stroke:none"
         d="m 2300.5,303.801 193.262,0 0,31.8906 -193.262,0 0,-31.8906 z" /><path
         id="path150"
         style="fill:#b0b0b0;fill-opacity:1;fill-rule:nonzero;stroke:none"
         d="m 2300.52,246.441 788.02,0 0,31.8867 -788.02,0 0,-31.8867 z" /><path
         id="path152"
         style="fill:#b0b0b0;fill-opacity:1;fill-rule:nonzero;stroke:none"
         d="m 380.168,240.23 454.898,0 0,99.1406 -454.898,0 0,-99.1406 z" /><path
         id="path154"
         style="fill:#b0b0b0;fill-opacity:1;fill-rule:nonzero;stroke:none"
         d="m 247.105,240.23 106.277,0 0,99.1406 -106.277,0 0,-99.1406 z" /><path
         id="path156"
         style="fill:#ffa186;fill-opacity:1;fill-rule:nonzero;stroke:none"
         d="m 859.43,240.23 160.359,0 0,99.1406 -160.359,0 0,-99.1406 z" /><path
         id="path158"
         style="fill:#ffa186;fill-opacity:1;fill-rule:nonzero;stroke:none"
         d="m 910.449,888.27 c 9.574,3.949 25.059,3.949 34.375,0 9.356,-3.918 16.067,-16.782 14.942,-28.489 l -2.985,-30.633 C 955.605,817.43 945.035,807.84 933.227,807.84 l -11.594,0 c -11.828,0 -22.403,9.59 -23.551,21.308 l -2.992,30.633 c -1.145,11.707 5.777,24.571 15.359,28.489 z m -0.367,-95.372 34.699,0 c 11.824,0 28.071,-7.007 36.16,-15.578 l 14.493,-15.429 c 15.076,16.418 24.356,38.281 24.356,62.339 0,51.008 -41.349,92.36 -92.364,92.36 -51.004,0 -92.36,-41.352 -92.36,-92.36 0,-24.082 9.286,-45.921 24.364,-62.339 l 14.511,15.429 c 8.071,8.571 24.352,15.578 36.141,15.578" /><path
         id="path160"
         style="fill:#feffff;fill-opacity:1;fill-rule:nonzero;stroke:none"
         d="m 995.434,761.891 -14.493,15.429 c -8.089,8.571 -24.336,15.578 -36.16,15.578 l -34.699,0 c -11.789,0 -28.07,-7.007 -36.141,-15.578 L 859.43,761.891 c 16.883,-18.422 41.054,-30.02 67.996,-30.02 26.949,0 51.125,11.598 68.008,30.02" /><path
         id="path162"
         style="fill:#feffff;fill-opacity:1;fill-rule:nonzero;stroke:none"
         d="m 898.082,829.148 c 1.148,-11.718 11.723,-21.308 23.551,-21.308 l 11.594,0 c 11.808,0 22.378,9.59 23.554,21.308 l 2.985,30.633 c 1.125,11.707 -5.586,24.571 -14.942,28.489 -9.316,3.949 -24.801,3.949 -34.375,0 -9.582,-3.918 -16.504,-16.782 -15.359,-28.489 l 2.992,-30.633" /><path
         id="path164"
         style="fill:#6e798f;fill-opacity:1;fill-rule:nonzero;stroke:none"
         d="m 249.648,731.871 511.387,0 0,178.18 -511.387,0 0,-178.18 z" /><path
         id="path166"
         style="fill:#ffa186;fill-opacity:1;fill-rule:nonzero;stroke:none"
         d="m 322.484,653.941 c 9.579,3.938 25.059,3.938 34.375,0 9.356,-3.929 16.067,-16.781 14.942,-28.5 l -2.985,-30.621 c -1.175,-11.718 -11.746,-21.308 -23.55,-21.308 l -11.598,0 c -11.828,0 -22.402,9.59 -23.551,21.308 l -2.992,30.621 c -1.145,11.719 5.781,24.571 15.359,28.5 z m -0.367,-95.371 34.699,0 c 11.829,0 28.071,-7.019 36.164,-15.59 l 14.493,-15.429 c 15.07,16.429 24.351,38.277 24.351,62.34 0,51.019 -41.344,92.371 -92.359,92.371 -51.008,0 -92.36,-41.352 -92.36,-92.371 0,-24.082 9.282,-45.911 24.36,-62.34 l 14.512,15.429 c 8.07,8.571 24.351,15.59 36.14,15.59" /><path
         id="path168"
         style="fill:#feffff;fill-opacity:1;fill-rule:nonzero;stroke:none"
         d="M 407.473,527.551 392.98,542.98 c -8.093,8.571 -24.335,15.59 -36.164,15.59 l -34.699,0 c -11.789,0 -28.07,-7.019 -36.14,-15.59 l -14.512,-15.429 c 16.887,-18.422 41.055,-30.02 68,-30.02 26.945,0 51.121,11.598 68.008,30.02" /><path
         id="path170"
         style="fill:#feffff;fill-opacity:1;fill-rule:nonzero;stroke:none"
         d="m 310.117,594.82 c 1.149,-11.718 11.723,-21.308 23.551,-21.308 l 11.598,0 c 11.804,0 22.375,9.59 23.55,21.308 l 2.985,30.621 c 1.125,11.719 -5.586,24.571 -14.942,28.5 -9.316,3.938 -24.796,3.938 -34.375,0 -9.578,-3.929 -16.504,-16.781 -15.359,-28.5 l 2.992,-30.621" /><path
         id="path172"
         style="fill:#6e798f;fill-opacity:1;fill-rule:nonzero;stroke:none"
         d="m 505.344,416.648 511.387,0 0,256.68 -511.387,0 0,-256.68 z" /><path
         id="path174"
         style="fill:#6e798f;fill-opacity:1;fill-rule:nonzero;stroke:none"
         d="m 475.566,627.18 14.895,17.191 14.883,17.18 0,-68.77 -14.883,17.207 -14.895,17.192" /><path
         id="path176"
         style="fill:#6e798f;fill-opacity:1;fill-rule:nonzero;stroke:none"
         d="m 790.816,860.34 -14.894,-17.18 -14.883,-17.191 0,68.769 14.883,-17.207 14.894,-17.191" /><path
         id="path178"
         style="fill:#9aa1b1;fill-opacity:1;fill-rule:nonzero;stroke:none"
         d="m 295.324,840.238 409.074,0 0,31.9023 -409.074,0 0,-31.9023 z" /><path
         id="path180"
         style="fill:#9aa1b1;fill-opacity:1;fill-rule:nonzero;stroke:none"
         d="m 295.324,776.961 409.074,0 0,31.8984 -409.074,0 0,-31.8984 z" /><path
         id="path182"
         style="fill:#9aa1b1;fill-opacity:1;fill-rule:nonzero;stroke:none"
         d="m 556.5,589.191 409.074,0 0,31.8867 -409.074,0 0,-31.8867 z" /><path
         id="path184"
         style="fill:#9aa1b1;fill-opacity:1;fill-rule:nonzero;stroke:none"
         d="m 556.5,525.91 409.074,0 0,31.8906 -409.074,0 0,-31.8906 z" /><path
         id="path186"
         style="fill:#9aa1b1;fill-opacity:1;fill-rule:nonzero;stroke:none"
         d="m 556.5,463.449 409.074,0 0,31.8906 -409.074,0 0,-31.8906 z" /><path
         id="path188"
         style="fill:#ffffff;fill-opacity:1;fill-rule:nonzero;stroke:none"
         d="m 3211.3,1171.73 c 0,-15.36 -12.44,-27.81 -27.81,-27.81 l -960.45,0 c -15.37,0 -27.82,12.45 -27.82,27.81 l 0,1025.92 c 0,15.37 12.45,27.81 27.82,27.81 l 960.45,0 c 15.37,0 27.81,-12.44 27.81,-27.81 l 0,-1025.92" /><path
         id="path190"
         style="fill:#ffa186;fill-opacity:1;fill-rule:nonzero;stroke:none"
         d="m 3211.3,2139.14 0,58.51 c 0,15.37 -12.44,27.81 -27.81,27.81 l -960.45,0 c -15.37,0 -27.82,-12.44 -27.82,-27.81 l 0,-58.51 1016.08,0" /><path
         id="path192"
         style="fill:#ffffff;fill-opacity:1;fill-rule:nonzero;stroke:none"
         d="m 2289.72,2178.36 c 0,-7.13 -5.78,-12.91 -12.91,-12.91 -7.13,0 -12.91,5.78 -12.91,12.91 0,7.13 5.78,12.93 12.91,12.93 7.13,0 12.91,-5.8 12.91,-12.93" /><path
         id="path194"
         style="fill:#ffffff;fill-opacity:1;fill-rule:nonzero;stroke:none"
         d="m 2345.93,2178.36 c 0,-7.13 -5.78,-12.91 -12.91,-12.91 -7.13,0 -12.93,5.78 -12.93,12.91 0,7.13 5.8,12.93 12.93,12.93 7.13,0 12.91,-5.8 12.91,-12.93" /><path
         id="path196"
         style="fill:#ffffff;fill-opacity:1;fill-rule:nonzero;stroke:none"
         d="m 2402.12,2178.36 c 0,-7.13 -5.78,-12.91 -12.91,-12.91 -7.13,0 -12.91,5.78 -12.91,12.91 0,7.13 5.78,12.93 12.91,12.93 7.13,0 12.91,-5.8 12.91,-12.93" /><path
         id="path198"
         style="fill:#b0b0b0;fill-opacity:1;fill-rule:nonzero;stroke:none"
         d="m 2308.19,2033.09 780.348,0 0,31.8906 -780.348,0 0,-31.8906 z" /><path
         id="path200"
         style="fill:#ccddf3;fill-opacity:1;fill-rule:nonzero;stroke:none"
         d="m 2308.17,1972.52 218.598,0 0,31.8945 -218.598,0 0,-31.8945 z" /><path
         id="path202"
         style="fill:#b0b0b0;fill-opacity:1;fill-rule:nonzero;stroke:none"
         d="m 2572.69,1972.54 513.668,0 0,31.8945 -513.668,0 0,-31.8945 z" /><path
         id="path204"
         style="fill:#6e798f;fill-opacity:1;fill-rule:nonzero;stroke:none"
         d="m 1305.25,1751.15 378.371,0 0,324.375 -378.371,0 0,-324.375 z" /><path
         id="path206"
         style="fill:#ffffff;fill-opacity:1;fill-rule:nonzero;stroke:none"
         d="m 1494.43,2009.48 c -54.05,0 -98.02,-43.99 -98.02,-98.04 0,-54.05 43.97,-98.01 98.02,-98.01 54.05,0 98.03,43.96 98.03,98.01 0,54.05 -43.98,98.04 -98.03,98.04 z m 0,-204.63 c -58.77,0 -106.6,47.82 -106.6,106.59 0,58.79 47.83,106.62 106.6,106.62 58.79,0 106.61,-47.83 106.61,-106.62 0,-58.77 -47.82,-106.59 -106.61,-106.59" /><path
         id="path208"
         style="fill:#ffffff;fill-opacity:1;fill-rule:nonzero;stroke:none"
         d="m 1458.96,1869.32 c 0,-9 6.28,-12.55 13.97,-7.83 l 72.9,44.52 c 7.69,4.69 7.69,12.38 0,17.08 l -72.9,44.53 c -7.69,4.69 -13.97,1.15 -13.97,-7.87 l 0,-90.43" /><path
         id="path210"
         style="fill:#b0b0b0;fill-opacity:1;fill-rule:nonzero;stroke:none"
         d="m 1446.48,511.281 583.199,0 0,96.9883 -583.199,0 0,-96.9883 z" /><path
         id="path212"
         style="fill:#ffa186;fill-opacity:1;fill-rule:nonzero;stroke:none"
         d="m 1305.51,511.281 110.598,0 0,96.9883 -110.598,0 0,-96.9883 z" /><path
         id="path214"
         style="fill:#b0b0b0;fill-opacity:1;fill-rule:nonzero;stroke:none"
         d="m 1446.48,375.5 583.199,0 0,96.9883 -583.199,0 0,-96.9883 z" /><path
         id="path216"
         style="fill:#ccddf3;fill-opacity:1;fill-rule:nonzero;stroke:none"
         d="m 1667.6,246.18 362.078,0 0,96.9922 -362.078,0 0,-96.9922 z" /><path
         id="path218"
         style="fill:#feffff;fill-opacity:1;fill-rule:nonzero;stroke:none"
         d="m 1388.62,538.699 -9.56,10.18 c -2.76,2.93 -8.3,5.312 -12.33,5.312 l -11.84,0 c -4.02,0 -9.57,-2.382 -12.32,-5.312 l -9.57,-10.18 c -2.75,-2.929 -1.72,-5.308 2.31,-5.308 l 51.01,0 c 4.02,0 5.05,2.379 2.3,5.308" /><path
         id="path220"
         style="fill:#feffff;fill-opacity:1;fill-rule:nonzero;stroke:none"
         d="m 1352.53,566.551 c 0.39,-3.981 4,-7.262 8.03,-7.262 l 3.97,0 c 4.01,0 7.62,3.281 8.02,7.262 l 1.01,10.449 c 0.39,3.988 -1.89,8.379 -5.09,9.711 -3.17,1.348 -8.45,1.348 -11.72,0 -3.26,-1.332 -5.62,-5.723 -5.23,-9.711 l 1.01,-10.449" /><path
         id="path222"
         style="fill:#ffa186;fill-opacity:1;fill-rule:nonzero;stroke:none"
         d="m 1305.51,375.93 110.598,0 0,96.9922 -110.598,0 0,-96.9922 z" /><path
         id="path224"
         style="fill:#feffff;fill-opacity:1;fill-rule:nonzero;stroke:none"
         d="m 1388.62,403.328 -9.56,10.184 c -2.76,2.949 -8.3,5.328 -12.33,5.328 l -11.84,0 c -4.02,0 -9.57,-2.379 -12.32,-5.328 L 1333,403.328 c -2.75,-2.906 -1.72,-5.308 2.31,-5.308 l 51.01,0 c 4.02,0 5.05,2.402 2.3,5.308" /><path
         id="path226"
         style="fill:#feffff;fill-opacity:1;fill-rule:nonzero;stroke:none"
         d="m 1352.53,431.199 c 0.39,-4 4,-7.277 8.03,-7.277 l 3.97,0 c 4.01,0 7.62,3.277 8.02,7.277 l 1.01,10.449 c 0.39,3.993 -1.89,8.364 -5.09,9.711 -3.17,1.352 -8.45,1.352 -11.72,0 -3.26,-1.347 -5.62,-5.718 -5.23,-9.711 l 1.01,-10.449" /><path
         id="path228"
         style="fill:#6e798f;fill-opacity:1;fill-rule:nonzero;stroke:none"
         d="m 2466.87,403.84 119.551,0 0,471.68 -119.551,0 0,-471.68 z" /><path
         id="path230"
         style="fill:#83c4d8;fill-opacity:1;fill-rule:nonzero;stroke:none"
         d="m 2466.87,582.551 119.551,0 0,292.969 -119.551,0 0,-292.969 z" /><path
         id="path232"
         style="fill:#ffe791;fill-opacity:1;fill-rule:nonzero;stroke:none"
         d="m 2633.62,403.84 119.527,0 0,394.262 -119.527,0 0,-394.262 z" /><path
         id="path234"
         style="fill:#ffa186;fill-opacity:1;fill-rule:nonzero;stroke:none"
         d="m 2300.5,403.84 119.57,0 0,355.641 -119.57,0 0,-355.641 z" /><path
         id="path236"
         style="fill:#6e798f;fill-opacity:1;fill-rule:nonzero;stroke:none"
         d="m 2800.34,403.84 119.551,0 0,434.262 -119.551,0 0,-434.262 z" /><path
         id="path238"
         style="fill:#83c4d8;fill-opacity:1;fill-rule:nonzero;stroke:none"
         d="m 2800.34,478.23 119.551,0 0,236.25 -119.551,0 0,-236.25 z" /><path
         id="path240"
         style="fill:#faf5eb;fill-opacity:1;fill-rule:nonzero;stroke:none"
         d="m 2420.07,500.949 1.9102,0 0,256.871 -1.9102,0 0,-256.871 z" /><path
         id="path242"
         style="fill:#fab89d;fill-opacity:1;fill-rule:nonzero;stroke:none"
         d="m 2302.43,500.949 117.641,0 0,256.871 -117.641,0 0,-256.871 z" /><path
         id="path244"
         style="fill:#ffa186;fill-opacity:1;fill-rule:nonzero;stroke:none"
         d="m 2967.08,403.84 119.527,0 0,355.641 -119.527,0 0,-355.641 z" /><path
         id="path246"
         style="fill:#faf5eb;fill-opacity:1;fill-rule:nonzero;stroke:none"
         d="m 3086.61,500.949 1.9297,0 0,256.871 -1.9297,0 0,-256.871 z" /><path
         id="path248"
         style="fill:#fab89d;fill-opacity:1;fill-rule:nonzero;stroke:none"
         d="m 2968.99,500.949 117.621,0 0,256.871 -117.621,0 0,-256.871 z" /><path
         id="path250"
         style="fill:#fae6a4;fill-opacity:1;fill-rule:nonzero;stroke:none"
         d="m 2633.62,453.941 119.527,0 0,252.828 -119.527,0 0,-252.828 z" /><path
         id="path252"
         style="fill:#b0b0b0;fill-opacity:1;fill-rule:nonzero;stroke:none"
         d="m 2308.17,1253.75 352.539,0 0,31.8906 -352.539,0 0,-31.8906 z" /><path
         id="path254"
         style="fill:#ccddf3;fill-opacity:1;fill-rule:nonzero;stroke:none"
         d="m 2511.1,1314.33 149.609,0 0,31.9023 -149.609,0 0,-31.9023 z" /><path
         id="path256"
         style="fill:#ccddf3;fill-opacity:1;fill-rule:nonzero;stroke:none"
         d="m 2309.17,1314.3 232.047,0 0,31.8984 -232.047,0 0,-31.8984 z" /><path
         id="path258"
         style="fill:#b0b0b0;fill-opacity:1;fill-rule:nonzero;stroke:none"
         d="m 2308.17,1380.8 120.117,0 0,31.8945 -120.117,0 0,-31.8945 z" /><path
         id="path260"
         style="fill:#b0b0b0;fill-opacity:1;fill-rule:nonzero;stroke:none"
         d="m 2561.96,1441.39 98.75,0 0,31.8945 -98.75,0 0,-31.8945 z" /><path
         id="path262"
         style="fill:#b0b0b0;fill-opacity:1;fill-rule:nonzero;stroke:none"
         d="m 2461.75,1380.84 198.961,0 0,31.8945 -198.961,0 0,-31.8945 z" /><path
         id="path264"
         style="fill:#b0b0b0;fill-opacity:1;fill-rule:nonzero;stroke:none"
         d="m 2309.17,1441.37 263.52,0 0,31.8945 -263.52,0 0,-31.8945 z" /><path
         id="path266"
         style="fill:#b0b0b0;fill-opacity:1;fill-rule:nonzero;stroke:none"
         d="m 2734.66,1441.39 352.539,0 0,31.8945 -352.539,0 0,-31.8945 z" /><path
         id="path268"
         style="fill:#b0b0b0;fill-opacity:1;fill-rule:nonzero;stroke:none"
         d="m 2734.66,1380.82 98.75,0 0,31.8945 -98.75,0 0,-31.8945 z" /><path
         id="path270"
         style="fill:#ccddf3;fill-opacity:1;fill-rule:nonzero;stroke:none"
         d="m 2734.66,1380.84 351.539,0 0,31.8945 -351.539,0 0,-31.8945 z" /><path
         id="path272"
         style="fill:#b0b0b0;fill-opacity:1;fill-rule:nonzero;stroke:none"
         d="m 2734.66,1314.32 352.539,0 0,31.8984 -352.539,0 0,-31.8984 z" /><path
         id="path274"
         style="fill:#ffa186;fill-opacity:1;fill-rule:nonzero;stroke:none"
         d="m 2734.66,1253.75 98.75,0 0,31.8906 -98.75,0 0,-31.8906 z" /><path
         id="path276"
         style="fill:#b0b0b0;fill-opacity:1;fill-rule:nonzero;stroke:none"
         d="m 2854.15,1253.77 232.051,0 0,31.8906 -232.051,0 0,-31.8906 z" /><path
         id="path278"
         style="fill:#ffa186;fill-opacity:1;fill-rule:nonzero;stroke:none"
         d="m 2314.81,1513.21 118.15,229.84 106.03,-229.84" /><path
         id="path280"
         style="fill:#ffe791;fill-opacity:1;fill-rule:nonzero;stroke:none"
         d="m 2436.92,1513.21 118.13,162.31 106.03,-162.31" /><path
         id="path282"
         style="fill:#b0b0b0;fill-opacity:1;fill-rule:nonzero;stroke:none"
         d="m 2834.85,1521.9 0,208.72 -44.57,0 0,-205.94 c 0,-0.95 -0.11,-1.89 -0.31,-2.78 l 44.88,0" /><path
         id="path284"
         style="fill:#ffa186;fill-opacity:1;fill-rule:nonzero;stroke:none"
         d="m 2931.81,1521.9 0,129.47 -44.57,0 0,-127.75 -0.3,-1.72 44.87,0" /><path
         id="path286"
         style="fill:#6e798f;fill-opacity:1;fill-rule:nonzero;stroke:none"
         d="m 3028.76,1521.9 0,153.62 -44.57,0 0,-151.57 -0.31,-2.05 44.88,0" /><path
         id="path288"
         style="fill:#6e798f;fill-opacity:1;fill-rule:nonzero;stroke:none"
         d="m 2308.19,1782.68 778.008,0 0,141.887 -778.008,0 0,-141.887 z" /><path
         id="path290"
         style="fill:#6e798f;fill-opacity:1;fill-rule:nonzero;stroke:none"
         d="m 1305.24,1085.3 724.441,0 0,117.238 -724.441,0 0,-117.238 z" /><path
         id="path292"
         style="fill:#ed966d;fill-opacity:1;fill-rule:nonzero;stroke:none"
         d="m 1899.4,1085.3 130.281,0 0,117.23 -130.281,0 0,-117.23 z" /><path
         id="path294"
         style="fill:#9aa1b1;fill-opacity:1;fill-rule:nonzero;stroke:none"
         d="m 1338.32,1106.71 532.352,0 0,76.2305 -532.352,0 0,-76.2305 z" /><path
         id="path296"
         style="fill:#ffffff;fill-opacity:1;fill-rule:nonzero;stroke:none"
         d="m 1953.99,1134.39 c -9.33,0 -16.87,7.55 -16.87,16.91 0,9.33 7.54,16.91 16.87,16.91 9.36,0 16.96,-7.58 16.96,-16.91 0,-9.36 -7.6,-16.91 -16.96,-16.91 z m 41.25,-10.73 -16.5,15.16 c 1.89,3.75 2.99,7.97 2.99,12.48 0,15.32 -12.42,27.71 -27.74,27.71 -15.29,0 -27.69,-12.39 -27.69,-27.71 0,-15.31 12.4,-27.73 27.69,-27.73 4.52,0 8.73,1.09 12.48,2.98 l 15.16,-16.5 c 1.5,-1.58 3.93,-1.62 5.49,-0.1 l 8.24,8.22 c 1.52,1.55 1.47,4.01 -0.12,5.49" /></g></g></svg>